<svg width="335" height="75" viewBox="0 0 335 75" fill="none" xmlns="http://www.w3.org/2000/svg">
<path d="M7.87451 61.1211V55.8711H55.1245V61.1211H7.87451Z" fill="#ECECEC"/>
<path d="M31.5005 19.1221L42.0005 53.2471L49.8755 50.6221L39.3755 16.4971L31.5005 19.1221Z" fill="#FFC81A"/>
<path d="M23.6245 13.8711V53.2461H31.4995V13.8711H23.6245Z" fill="#02BAD3"/>
<path d="M13.1245 19.1211V53.2461H20.9995V19.1211H13.1245Z" fill="#FF4B33"/>
<path d="M71.708 18.0117H82.7432V31.2686C83.6221 30.8454 84.5254 30.5199 85.4531 30.292C86.3809 30.0641 87.333 29.9502 88.3096 29.9502C90.1813 29.9502 91.9147 30.3001 93.5098 31C95.1048 31.6999 96.4801 32.652 97.6357 33.8564C98.7913 35.0609 99.6947 36.4688 100.346 38.0801C101.013 39.6914 101.347 41.4004 101.347 43.207C101.347 45.0299 101.021 46.7471 100.37 48.3584C99.7354 49.9697 98.8402 51.3776 97.6846 52.582C96.529 53.7702 95.1536 54.7142 93.5586 55.4141C91.9635 56.0977 90.2139 56.4395 88.3096 56.4395C87.2842 56.4395 86.3076 56.3418 85.3799 56.1465C84.4521 55.9512 83.5732 55.6745 82.7432 55.3164V56H75.248V24.7012H71.708V18.0117ZM87.7969 36.6885C86.7227 36.6885 85.7542 36.9326 84.8916 37.4209C84.0452 37.9092 83.3291 38.609 82.7432 39.5205V47.0889C83.264 47.8701 83.9557 48.5049 84.8184 48.9932C85.6973 49.4652 86.6738 49.7012 87.748 49.7012C88.5781 49.7012 89.3675 49.5547 90.1162 49.2617C90.8649 48.9525 91.516 48.5212 92.0693 47.9678C92.639 47.3981 93.0866 46.7227 93.4121 45.9414C93.7376 45.1439 93.9004 44.2487 93.9004 43.2559C93.9004 42.2467 93.7376 41.3353 93.4121 40.5215C93.0866 39.7077 92.6471 39.016 92.0938 38.4463C91.5404 37.8766 90.8893 37.4453 90.1406 37.1523C89.4082 36.8431 88.627 36.6885 87.7969 36.6885ZM104.143 43.2559C104.143 41.4167 104.476 39.6914 105.144 38.0801C105.811 36.4688 106.739 35.0609 107.927 33.8564C109.115 32.652 110.531 31.6999 112.175 31C113.819 30.3001 115.625 29.9502 117.595 29.9502C119.564 29.9502 121.371 30.3001 123.015 31C124.675 31.6999 126.099 32.652 127.287 33.8564C128.475 35.0609 129.395 36.4688 130.046 38.0801C130.713 39.6914 131.047 41.4167 131.047 43.2559C131.047 45.0951 130.721 46.8285 130.07 48.4561C129.436 50.0674 128.524 51.4834 127.336 52.7041C126.164 53.9085 124.748 54.8607 123.088 55.5605C121.444 56.2604 119.613 56.6104 117.595 56.6104C115.56 56.6104 113.713 56.2604 112.053 55.5605C110.409 54.8607 109.001 53.9085 107.829 52.7041C106.657 51.4997 105.746 50.0918 105.095 48.4805C104.46 46.8529 104.143 45.1113 104.143 43.2559ZM111.442 43.2559C111.442 44.2161 111.605 45.1032 111.931 45.917C112.256 46.7145 112.696 47.4062 113.249 47.9922C113.819 48.5781 114.47 49.0339 115.202 49.3594C115.951 49.6849 116.748 49.8477 117.595 49.8477C118.457 49.8477 119.255 49.693 119.987 49.3838C120.736 49.0583 121.379 48.6025 121.916 48.0166C122.469 47.4307 122.901 46.7389 123.21 45.9414C123.519 45.1276 123.674 44.2324 123.674 43.2559C123.674 42.2467 123.519 41.3353 123.21 40.5215C122.901 39.7077 122.469 39.016 121.916 38.4463C121.379 37.8766 120.736 37.4453 119.987 37.1523C119.255 36.8431 118.457 36.6966 117.595 36.7129C116.748 36.6966 115.951 36.8431 115.202 37.1523C114.47 37.4453 113.819 37.8766 113.249 38.4463C112.696 39.016 112.256 39.7077 111.931 40.5215C111.605 41.3353 111.442 42.2467 111.442 43.2559ZM134.062 43.2559C134.062 41.4167 134.396 39.6914 135.063 38.0801C135.731 36.4688 136.659 35.0609 137.847 33.8564C139.035 32.652 140.451 31.6999 142.095 31C143.739 30.3001 145.545 29.9502 147.515 29.9502C149.484 29.9502 151.291 30.3001 152.935 31C154.595 31.6999 156.019 32.652 157.207 33.8564C158.395 35.0609 159.315 36.4688 159.966 38.0801C160.633 39.6914 160.967 41.4167 160.967 43.2559C160.967 45.0951 160.641 46.8285 159.99 48.4561C159.355 50.0674 158.444 51.4834 157.256 52.7041C156.084 53.9085 154.668 54.8607 153.008 55.5605C151.364 56.2604 149.533 56.6104 147.515 56.6104C145.48 56.6104 143.633 56.2604 141.973 55.5605C140.329 54.8607 138.921 53.9085 137.749 52.7041C136.577 51.4997 135.666 50.0918 135.015 48.4805C134.38 46.8529 134.062 45.1113 134.062 43.2559ZM141.362 43.2559C141.362 44.2161 141.525 45.1032 141.851 45.917C142.176 46.7145 142.616 47.4062 143.169 47.9922C143.739 48.5781 144.39 49.0339 145.122 49.3594C145.871 49.6849 146.668 49.8477 147.515 49.8477C148.377 49.8477 149.175 49.693 149.907 49.3838C150.656 49.0583 151.299 48.6025 151.836 48.0166C152.389 47.4307 152.821 46.7389 153.13 45.9414C153.439 45.1276 153.594 44.2324 153.594 43.2559C153.594 42.2467 153.439 41.3353 153.13 40.5215C152.821 39.7077 152.389 39.016 151.836 38.4463C151.299 37.8766 150.656 37.4453 149.907 37.1523C149.175 36.8431 148.377 36.6966 147.515 36.7129C146.668 36.6966 145.871 36.8431 145.122 37.1523C144.39 37.4453 143.739 37.8766 143.169 38.4463C142.616 39.016 142.176 39.7077 141.851 40.5215C141.525 41.3353 141.362 42.2467 141.362 43.2559ZM163.665 18.0117H175.066V39.9111H179.339L181.097 37.3965V30.707H194.183V37.3965H189.642L184.93 42.8408L189.739 48.6514H193.938V56H187.078L178.875 45.1602H175.066V49.3105H177.654V56H163.665V49.3105H167.571V24.7012H163.665V18.0117ZM225.564 29.85C227.764 29.85 229.514 30.3 230.814 31.2C232.148 32.0667 233.098 33.2667 233.664 34.8C234.264 36.3 234.564 37.9667 234.564 39.8V54.5C234.564 54.9 234.414 55.25 234.114 55.55C233.814 55.85 233.464 56 233.064 56C232.598 56 232.231 55.85 231.964 55.55C231.698 55.25 231.564 54.9 231.564 54.5V39.95C231.564 38.6167 231.348 37.4 230.914 36.3C230.481 35.2 229.764 34.3167 228.764 33.65C227.798 32.9833 226.514 32.65 224.914 32.65C223.481 32.65 222.114 32.9833 220.814 33.65C219.548 34.3167 218.514 35.2 217.714 36.3C216.914 37.4 216.514 38.6167 216.514 39.95V54.5C216.514 54.9 216.364 55.25 216.064 55.55C215.764 55.85 215.414 56 215.014 56C214.548 56 214.181 55.85 213.914 55.55C213.648 55.25 213.514 54.9 213.514 54.5V32.1C213.514 31.7 213.648 31.35 213.914 31.05C214.214 30.75 214.581 30.6 215.014 30.6C215.448 30.6 215.798 30.75 216.064 31.05C216.364 31.35 216.514 31.7 216.514 32.1V36.3L215.364 38.1C215.431 37.0333 215.764 36.0167 216.364 35.05C216.998 34.05 217.798 33.1667 218.764 32.4C219.731 31.6 220.798 30.9833 221.964 30.55C223.164 30.0833 224.364 29.85 225.564 29.85ZM265.721 43.2C265.721 45.7333 265.171 48.0167 264.071 50.05C262.971 52.05 261.471 53.6333 259.571 54.8C257.671 55.9333 255.504 56.5 253.071 56.5C250.704 56.5 248.554 55.9333 246.621 54.8C244.721 53.6333 243.204 52.05 242.071 50.05C240.971 48.0167 240.421 45.7333 240.421 43.2C240.421 40.6333 240.971 38.35 242.071 36.35C243.204 34.35 244.721 32.7667 246.621 31.6C248.554 30.4333 250.704 29.85 253.071 29.85C255.504 29.85 257.671 30.4333 259.571 31.6C261.471 32.7667 262.971 34.35 264.071 36.35C265.171 38.35 265.721 40.6333 265.721 43.2ZM262.721 43.2C262.721 41.1667 262.304 39.3667 261.471 37.8C260.637 36.2 259.487 34.95 258.021 34.05C256.587 33.1167 254.937 32.65 253.071 32.65C251.271 32.65 249.637 33.1167 248.171 34.05C246.704 34.95 245.537 36.2 244.671 37.8C243.837 39.3667 243.421 41.1667 243.421 43.2C243.421 45.2333 243.837 47.0333 244.671 48.6C245.537 50.1667 246.704 51.4167 248.171 52.35C249.637 53.25 251.271 53.7 253.071 53.7C254.937 53.7 256.587 53.25 258.021 52.35C259.487 51.4167 260.637 50.1667 261.471 48.6C262.304 47.0333 262.721 45.2333 262.721 43.2ZM295.396 43.2C295.396 45.7333 294.846 48.0167 293.746 50.05C292.646 52.05 291.146 53.6333 289.246 54.8C287.346 55.9333 285.18 56.5 282.746 56.5C280.38 56.5 278.23 55.9333 276.296 54.8C274.396 53.6333 272.88 52.05 271.746 50.05C270.646 48.0167 270.096 45.7333 270.096 43.2C270.096 40.6333 270.646 38.35 271.746 36.35C272.88 34.35 274.396 32.7667 276.296 31.6C278.23 30.4333 280.38 29.85 282.746 29.85C285.18 29.85 287.346 30.4333 289.246 31.6C291.146 32.7667 292.646 34.35 293.746 36.35C294.846 38.35 295.396 40.6333 295.396 43.2ZM292.396 43.2C292.396 41.1667 291.98 39.3667 291.146 37.8C290.313 36.2 289.163 34.95 287.696 34.05C286.263 33.1167 284.613 32.65 282.746 32.65C280.946 32.65 279.313 33.1167 277.846 34.05C276.38 34.95 275.213 36.2 274.346 37.8C273.513 39.3667 273.096 41.1667 273.096 43.2C273.096 45.2333 273.513 47.0333 274.346 48.6C275.213 50.1667 276.38 51.4167 277.846 52.35C279.313 53.25 280.946 53.7 282.746 53.7C284.613 53.7 286.263 53.25 287.696 52.35C289.163 51.4167 290.313 50.1667 291.146 48.6C291.98 47.0333 292.396 45.2333 292.396 43.2ZM303.072 56C302.639 56 302.272 55.85 301.972 55.55C301.706 55.25 301.572 54.9 301.572 54.5V20.5C301.572 20.1 301.706 19.75 301.972 19.45C302.272 19.15 302.639 19 303.072 19C303.506 19 303.856 19.15 304.122 19.45C304.422 19.75 304.572 20.1 304.572 20.5V54.5C304.572 54.9 304.422 55.25 304.122 55.55C303.856 55.85 303.506 56 303.072 56ZM320.072 30.35C320.439 30.35 320.772 30.5167 321.072 30.85C321.372 31.15 321.522 31.4833 321.522 31.85C321.522 32.2833 321.339 32.6667 320.972 33L304.172 47.3L304.022 43.75L319.022 30.85C319.322 30.5167 319.672 30.35 320.072 30.35ZM320.472 56C320.039 56 319.672 55.8167 319.372 55.45L307.972 43.35L310.222 41.3L321.522 53.35C321.822 53.6833 321.972 54.0667 321.972 54.5C321.972 54.9667 321.789 55.3333 321.422 55.6C321.056 55.8667 320.739 56 320.472 56Z" fill="#0D0D0D"/>
<path d="M198.834 52.0449C198.834 51.3939 198.948 50.7835 199.176 50.2139C199.42 49.6442 199.754 49.1396 200.177 48.7002C200.616 48.2607 201.129 47.9189 201.715 47.6748C202.301 47.4144 202.927 47.2842 203.595 47.2842C204.229 47.2842 204.832 47.4144 205.401 47.6748C205.987 47.9189 206.492 48.2607 206.915 48.7002C207.354 49.1234 207.696 49.6279 207.94 50.2139C208.185 50.7998 208.307 51.4102 208.307 52.0449C208.307 52.696 208.176 53.3145 207.916 53.9004C207.672 54.4863 207.338 54.9909 206.915 55.4141C206.492 55.8372 205.995 56.1709 205.426 56.415C204.856 56.6755 204.246 56.8057 203.595 56.8057C202.911 56.8057 202.276 56.6755 201.69 56.415C201.121 56.1709 200.616 55.8372 200.177 55.4141C199.754 54.9909 199.42 54.4945 199.176 53.9248C198.948 53.3389 198.834 52.7122 198.834 52.0449Z" fill="#FFC81A"/>
</svg>
