<svg width="291" height="66" viewBox="0 0 291 66" fill="none" xmlns="http://www.w3.org/2000/svg">
<path d="M9.07666 52.7405V48.2471H49.5171V52.7405H9.07666Z" fill="#ECECEC"/>
<path d="M29.2979 16.7945L38.2846 46.0015L45.0247 43.7548L36.0379 14.5479L29.2979 16.7945Z" fill="#FFC81A"/>
<path d="M22.5566 12.2998V46.0002H29.2967V12.2998H22.5566Z" fill="#02BAD3"/>
<path d="M13.5698 16.793V46H20.3099V16.793H13.5698Z" fill="#FF4B33"/>
<path d="M63.7105 15.5099H73.1553V26.8562C73.9075 26.494 74.6806 26.2154 75.4747 26.0204C76.2687 25.8254 77.0836 25.7279 77.9194 25.7279C79.5214 25.7279 81.005 26.0274 82.3702 26.6264C83.7354 27.2254 84.9125 28.0403 85.9016 29.0712C86.8906 30.102 87.6637 31.307 88.221 32.6861C88.7921 34.0652 89.0777 35.5279 89.0777 37.0742C89.0777 38.6344 88.7991 40.104 88.2419 41.4831C87.6986 42.8622 86.9324 44.0672 85.9433 45.0981C84.9543 46.115 83.7772 46.9229 82.412 47.5219C81.0468 48.107 79.5493 48.3996 77.9194 48.3996C77.0418 48.3996 76.206 48.316 75.412 48.1488C74.6179 47.9816 73.8657 47.7448 73.1553 47.4384V48.0234H66.7403V21.2353H63.7105V15.5099ZM77.4806 31.495C76.5612 31.495 75.7324 31.704 74.9941 32.1219C74.2697 32.5398 73.6568 33.1388 73.1553 33.9189V40.3966C73.601 41.0652 74.1931 41.6085 74.9314 42.0264C75.6836 42.4304 76.5194 42.6324 77.4388 42.6324C78.1493 42.6324 78.8249 42.507 79.4657 42.2563C80.1065 41.9916 80.6637 41.6224 81.1374 41.1488C81.6249 40.6612 82.008 40.0831 82.2866 39.4145C82.5652 38.7319 82.7045 37.9657 82.7045 37.116C82.7045 36.2523 82.5652 35.4722 82.2866 34.7756C82.008 34.0791 81.6319 33.4871 81.1583 32.9995C80.6846 32.512 80.1274 32.1428 79.4866 31.8921C78.8597 31.6274 78.1911 31.495 77.4806 31.495ZM91.4706 37.116C91.4706 35.5418 91.7562 34.0652 92.3274 32.6861C92.8985 31.307 93.6925 30.102 94.7095 29.0712C95.7264 28.0403 96.9383 27.2254 98.3453 26.6264C99.7522 26.0274 101.299 25.7279 102.984 25.7279C104.67 25.7279 106.216 26.0274 107.623 26.6264C109.044 27.2254 110.263 28.0403 111.28 29.0712C112.297 30.102 113.084 31.307 113.641 32.6861C114.212 34.0652 114.498 35.5418 114.498 37.116C114.498 38.6901 114.219 40.1737 113.662 41.5667C113.118 42.9458 112.338 44.1578 111.321 45.2025C110.318 46.2334 109.106 47.0483 107.686 47.6473C106.279 48.2463 104.711 48.5458 102.984 48.5458C101.243 48.5458 99.6617 48.2463 98.2408 47.6473C96.8338 47.0483 95.6289 46.2334 94.6259 45.2025C93.6229 44.1717 92.8428 42.9667 92.2856 41.5876C91.7423 40.1946 91.4706 38.704 91.4706 37.116ZM97.7184 37.116C97.7184 37.9378 97.8577 38.6971 98.1363 39.3936C98.4149 40.0762 98.7911 40.6682 99.2647 41.1697C99.7522 41.6712 100.309 42.0612 100.936 42.3398C101.577 42.6185 102.26 42.7578 102.984 42.7578C103.722 42.7578 104.405 42.6254 105.032 42.3607C105.673 42.0821 106.223 41.6921 106.683 41.1906C107.156 40.6891 107.525 40.0971 107.79 39.4145C108.055 38.7179 108.187 37.9518 108.187 37.116C108.187 36.2523 108.055 35.4722 107.79 34.7756C107.525 34.0791 107.156 33.4871 106.683 32.9995C106.223 32.512 105.673 32.1428 105.032 31.8921C104.405 31.6274 103.722 31.502 102.984 31.5159C102.26 31.502 101.577 31.6274 100.936 31.8921C100.309 32.1428 99.7522 32.512 99.2647 32.9995C98.7911 33.4871 98.4149 34.0791 98.1363 34.7756C97.8577 35.4722 97.7184 36.2523 97.7184 37.116ZM117.079 37.116C117.079 35.5418 117.364 34.0652 117.935 32.6861C118.506 31.307 119.3 30.102 120.317 29.0712C121.334 28.0403 122.546 27.2254 123.953 26.6264C125.36 26.0274 126.906 25.7279 128.592 25.7279C130.278 25.7279 131.824 26.0274 133.231 26.6264C134.652 27.2254 135.871 28.0403 136.888 29.0712C137.904 30.102 138.692 31.307 139.249 32.6861C139.82 34.0652 140.105 35.5418 140.105 37.116C140.105 38.6901 139.827 40.1737 139.27 41.5667C138.726 42.9458 137.946 44.1578 136.929 45.2025C135.926 46.2334 134.714 47.0483 133.294 47.6473C131.887 48.2463 130.319 48.5458 128.592 48.5458C126.851 48.5458 125.27 48.2463 123.849 47.6473C122.442 47.0483 121.237 46.2334 120.234 45.2025C119.231 44.1717 118.451 42.9667 117.894 41.5876C117.35 40.1946 117.079 38.704 117.079 37.116ZM123.326 37.116C123.326 37.9378 123.466 38.6971 123.744 39.3936C124.023 40.0762 124.399 40.6682 124.873 41.1697C125.36 41.6712 125.917 42.0612 126.544 42.3398C127.185 42.6185 127.868 42.7578 128.592 42.7578C129.33 42.7578 130.013 42.6254 130.64 42.3607C131.281 42.0821 131.831 41.6921 132.291 41.1906C132.764 40.6891 133.133 40.0971 133.398 39.4145C133.663 38.7179 133.795 37.9518 133.795 37.116C133.795 36.2523 133.663 35.4722 133.398 34.7756C133.133 34.0791 132.764 33.4871 132.291 32.9995C131.831 32.512 131.281 32.1428 130.64 31.8921C130.013 31.6274 129.33 31.502 128.592 31.5159C127.868 31.502 127.185 31.6274 126.544 31.8921C125.917 32.1428 125.36 32.512 124.873 32.9995C124.399 33.4871 124.023 34.0791 123.744 34.7756C123.466 35.4722 123.326 36.2523 123.326 37.116ZM142.415 15.5099H152.173V34.2533H155.83L157.334 32.101V26.3756H168.534V32.101H164.648L160.615 36.7607L164.731 41.7339H168.325V48.0234H162.454L155.433 38.7458H152.173V42.2981H154.388V48.0234H142.415V42.2981H145.758V21.2353H142.415V15.5099ZM195.393 25.6421C197.276 25.6421 198.774 26.0273 199.887 26.7976C201.028 27.5393 201.841 28.5664 202.326 29.8787C202.84 31.1626 203.096 32.589 203.096 34.1581V46.7396C203.096 47.082 202.968 47.3815 202.711 47.6383C202.455 47.8951 202.155 48.0234 201.813 48.0234C201.413 48.0234 201.099 47.8951 200.871 47.6383C200.643 47.3815 200.529 47.082 200.529 46.7396V34.2865C200.529 33.1453 200.343 32.104 199.972 31.1626C199.602 30.2211 198.988 29.4651 198.132 28.8945C197.305 28.3239 196.207 28.0386 194.837 28.0386C193.61 28.0386 192.441 28.3239 191.328 28.8945C190.244 29.4651 189.36 30.2211 188.675 31.1626C187.99 32.104 187.648 33.1453 187.648 34.2865V46.7396C187.648 47.082 187.519 47.3815 187.263 47.6383C187.006 47.8951 186.706 48.0234 186.364 48.0234C185.965 48.0234 185.651 47.8951 185.422 47.6383C185.194 47.3815 185.08 47.082 185.08 46.7396V27.5678C185.08 27.2255 185.194 26.9259 185.422 26.6692C185.679 26.4124 185.993 26.284 186.364 26.284C186.735 26.284 187.034 26.4124 187.263 26.6692C187.519 26.9259 187.648 27.2255 187.648 27.5678V31.1626L186.663 32.7031C186.721 31.7902 187.006 30.9201 187.519 30.0927C188.061 29.2368 188.746 28.4808 189.573 27.8246C190.401 27.1399 191.314 26.6121 192.312 26.2412C193.339 25.8418 194.366 25.6421 195.393 25.6421ZM229.762 37.0681C229.762 39.2364 229.292 41.1906 228.35 42.9309C227.409 44.6427 226.125 45.9978 224.499 46.9964C222.873 47.9664 221.018 48.4514 218.936 48.4514C216.91 48.4514 215.07 47.9664 213.415 46.9964C211.789 45.9978 210.491 44.6427 209.521 42.9309C208.579 41.1906 208.109 39.2364 208.109 37.0681C208.109 34.8714 208.579 32.9171 209.521 31.2053C210.491 29.4936 211.789 28.1384 213.415 27.1399C215.07 26.1414 216.91 25.6421 218.936 25.6421C221.018 25.6421 222.873 26.1414 224.499 27.1399C226.125 28.1384 227.409 29.4936 228.35 31.2053C229.292 32.9171 229.762 34.8714 229.762 37.0681ZM227.195 37.0681C227.195 35.3278 226.838 33.7873 226.125 32.4464C225.412 31.077 224.428 30.0071 223.172 29.2368C221.945 28.438 220.533 28.0386 218.936 28.0386C217.395 28.0386 215.997 28.438 214.742 29.2368C213.486 30.0071 212.488 31.077 211.746 32.4464C211.033 33.7873 210.676 35.3278 210.676 37.0681C210.676 38.8084 211.033 40.349 211.746 41.6899C212.488 43.0308 213.486 44.1006 214.742 44.8995C215.997 45.6698 217.395 46.0549 218.936 46.0549C220.533 46.0549 221.945 45.6698 223.172 44.8995C224.428 44.1006 225.412 43.0308 226.125 41.6899C226.838 40.349 227.195 38.8084 227.195 37.0681ZM255.161 37.0681C255.161 39.2364 254.691 41.1906 253.749 42.9309C252.808 44.6427 251.524 45.9978 249.898 46.9964C248.272 47.9664 246.417 48.4514 244.335 48.4514C242.309 48.4514 240.469 47.9664 238.814 46.9964C237.188 45.9978 235.89 44.6427 234.92 42.9309C233.978 41.1906 233.508 39.2364 233.508 37.0681C233.508 34.8714 233.978 32.9171 234.92 31.2053C235.89 29.4936 237.188 28.1384 238.814 27.1399C240.469 26.1414 242.309 25.6421 244.335 25.6421C246.417 25.6421 248.272 26.1414 249.898 27.1399C251.524 28.1384 252.808 29.4936 253.749 31.2053C254.691 32.9171 255.161 34.8714 255.161 37.0681ZM252.594 37.0681C252.594 35.3278 252.237 33.7873 251.524 32.4464C250.811 31.077 249.826 30.0071 248.571 29.2368C247.344 28.438 245.932 28.0386 244.335 28.0386C242.794 28.0386 241.396 28.438 240.141 29.2368C238.885 30.0071 237.887 31.077 237.145 32.4464C236.432 33.7873 236.075 35.3278 236.075 37.0681C236.075 38.8084 236.432 40.349 237.145 41.6899C237.887 43.0308 238.885 44.1006 240.141 44.8995C241.396 45.6698 242.794 46.0549 244.335 46.0549C245.932 46.0549 247.344 45.6698 248.571 44.8995C249.826 44.1006 250.811 43.0308 251.524 41.6899C252.237 40.349 252.594 38.8084 252.594 37.0681ZM261.731 48.0234C261.36 48.0234 261.046 47.8951 260.79 47.6383C260.561 47.3815 260.447 47.082 260.447 46.7396V17.6396C260.447 17.2973 260.561 16.9977 260.79 16.7409C261.046 16.4842 261.36 16.3558 261.731 16.3558C262.102 16.3558 262.401 16.4842 262.63 16.7409C262.886 16.9977 263.015 17.2973 263.015 17.6396V46.7396C263.015 47.082 262.886 47.3815 262.63 47.6383C262.401 47.8951 262.102 48.0234 261.731 48.0234ZM276.281 26.0701C276.595 26.0701 276.88 26.2127 277.137 26.498C277.394 26.7548 277.522 27.0401 277.522 27.3539C277.522 27.7248 277.365 28.0528 277.051 28.3381L262.673 40.5773L262.544 37.5389L275.382 26.498C275.639 26.2127 275.939 26.0701 276.281 26.0701ZM276.623 48.0234C276.253 48.0234 275.939 47.8665 275.682 47.5527L265.925 37.1965L267.851 35.442L277.522 45.7553C277.779 46.0406 277.907 46.3687 277.907 46.7396C277.907 47.139 277.75 47.4528 277.436 47.6811C277.123 47.9093 276.852 48.0234 276.623 48.0234Z" fill="#0D0D0D"/>
<path d="M172.515 44.6384C172.515 44.0811 172.613 43.5588 172.808 43.0712C173.017 42.5836 173.302 42.1518 173.665 41.7757C174.041 41.3995 174.48 41.107 174.981 40.898C175.483 40.6752 176.019 40.5637 176.59 40.5637C177.133 40.5637 177.649 40.6752 178.136 40.898C178.638 41.107 179.07 41.3995 179.432 41.7757C179.808 42.1379 180.1 42.5697 180.309 43.0712C180.518 43.5727 180.623 44.0951 180.623 44.6384C180.623 45.1956 180.511 45.7249 180.288 46.2264C180.08 46.7279 179.794 47.1598 179.432 47.5219C179.07 47.8841 178.645 48.1697 178.157 48.3787C177.67 48.6015 177.147 48.713 176.59 48.713C176.005 48.713 175.462 48.6015 174.96 48.3787C174.473 48.1697 174.041 47.8841 173.665 47.5219C173.302 47.1598 173.017 46.7349 172.808 46.2473C172.613 45.7458 172.515 45.2095 172.515 44.6384Z" fill="#FFC81A"/>
</svg>
