<svg width="190" height="140" viewBox="0 0 190 140" fill="none" xmlns="http://www.w3.org/2000/svg">
<path d="M58.6763 84.7475V76.6758H131.322V84.7475H58.6763Z" fill="#9D9D9D"/>
<path d="M95.0005 20.1741L111.144 72.6404L123.252 68.6045L107.108 16.1382L95.0005 20.1741Z" fill="#FFC81A"/>
<path d="M82.8916 12.1021V72.6401H94.9992V12.1021H82.8916Z" fill="#02BAD3"/>
<path d="M66.748 20.1738V72.6401H78.8557V20.1738H66.748Z" fill="#FF4B33"/>
<path d="M0.53006 110.42H8.79169V120.345C9.44969 120.028 10.126 119.785 10.8205 119.614C11.5151 119.444 12.2279 119.358 12.9591 119.358C14.3604 119.358 15.6581 119.62 16.8523 120.144C18.0464 120.668 19.0761 121.381 19.9412 122.283C20.8064 123.184 21.4827 124.238 21.9701 125.445C22.4697 126.651 22.7195 127.931 22.7195 129.283C22.7195 130.648 22.4758 131.934 21.9884 133.14C21.5131 134.346 20.8429 135.4 19.9778 136.302C19.1126 137.191 18.083 137.898 16.8888 138.422C15.6947 138.934 14.3847 139.19 12.9591 139.19C12.1914 139.19 11.4603 139.117 10.7657 138.971C10.0711 138.824 9.41314 138.617 8.79169 138.349V138.861H3.18036V115.429H0.53006V110.42ZM12.5752 124.403C11.771 124.403 11.046 124.586 10.4001 124.951C9.76651 125.317 9.23036 125.841 8.79169 126.523V132.189C9.18162 132.774 9.69949 133.25 10.3453 133.615C11.0033 133.968 11.7344 134.145 12.5387 134.145C13.1601 134.145 13.7511 134.035 14.3116 133.816C14.8721 133.585 15.3596 133.262 15.7739 132.847C16.2003 132.421 16.5354 131.915 16.7791 131.33C17.0228 130.733 17.1447 130.063 17.1447 129.32C17.1447 128.564 17.0228 127.882 16.7791 127.273C16.5354 126.663 16.2064 126.145 15.7921 125.719C15.3778 125.293 14.8904 124.97 14.3299 124.75C13.7816 124.519 13.1967 124.403 12.5752 124.403ZM24.8127 129.32C24.8127 127.943 25.0625 126.651 25.5621 125.445C26.0617 124.238 26.7562 123.184 27.6457 122.283C28.5353 121.381 29.5954 120.668 30.8261 120.144C32.0568 119.62 33.4094 119.358 34.8838 119.358C36.3582 119.358 37.7108 119.62 38.9415 120.144C40.1844 120.668 41.2506 121.381 42.1401 122.283C43.0297 123.184 43.7181 124.238 44.2055 125.445C44.7051 126.651 44.9549 127.943 44.9549 129.32C44.9549 130.697 44.7112 131.994 44.2238 133.213C43.7486 134.419 43.0662 135.479 42.1767 136.393C41.2994 137.295 40.2392 138.008 38.9963 138.532C37.7656 139.056 36.3948 139.318 34.8838 139.318C33.3606 139.318 31.9776 139.056 30.7347 138.532C29.504 138.008 28.45 137.295 27.5726 136.393C26.6953 135.492 26.0129 134.438 25.5255 133.231C25.0503 132.013 24.8127 130.709 24.8127 129.32ZM30.2778 129.32C30.2778 130.039 30.3996 130.703 30.6433 131.312C30.887 131.909 31.216 132.427 31.6303 132.866C32.0568 133.304 32.5442 133.646 33.0926 133.889C33.6531 134.133 34.2502 134.255 34.8838 134.255C35.5296 134.255 36.1267 134.139 36.675 133.908C37.2356 133.664 37.7169 133.323 38.119 132.884C38.5333 132.445 38.8562 131.927 39.0877 131.33C39.3192 130.721 39.435 130.051 39.435 129.32C39.435 128.564 39.3192 127.882 39.0877 127.273C38.8562 126.663 38.5333 126.145 38.119 125.719C37.7169 125.293 37.2356 124.97 36.675 124.75C36.1267 124.519 35.5296 124.409 34.8838 124.421C34.2502 124.409 33.6531 124.519 33.0926 124.75C32.5442 124.97 32.0568 125.293 31.6303 125.719C31.216 126.145 30.887 126.663 30.6433 127.273C30.3996 127.882 30.2778 128.564 30.2778 129.32ZM47.2126 129.32C47.2126 127.943 47.4624 126.651 47.962 125.445C48.4616 124.238 49.1562 123.184 50.0457 122.283C50.9352 121.381 51.9954 120.668 53.2261 120.144C54.4568 119.62 55.8094 119.358 57.2838 119.358C58.7582 119.358 60.1108 119.62 61.3415 120.144C62.5844 120.668 63.6506 121.381 64.5401 122.283C65.4296 123.184 66.1181 124.238 66.6055 125.445C67.1051 126.651 67.3549 127.943 67.3549 129.32C67.3549 130.697 67.1112 131.994 66.6238 133.213C66.1486 134.419 65.4662 135.479 64.5767 136.393C63.6993 137.295 62.6392 138.008 61.3963 138.532C60.1656 139.056 58.7948 139.318 57.2838 139.318C55.7606 139.318 54.3776 139.056 53.1347 138.532C51.904 138.008 50.8499 137.295 49.9726 136.393C49.0953 135.492 48.4129 134.438 47.9255 133.231C47.4502 132.013 47.2126 130.709 47.2126 129.32ZM52.6777 129.32C52.6777 130.039 52.7996 130.703 53.0433 131.312C53.287 131.909 53.616 132.427 54.0303 132.866C54.4568 133.304 54.9442 133.646 55.4925 133.889C56.0531 134.133 56.6501 134.255 57.2838 134.255C57.9296 134.255 58.5267 134.139 59.075 133.908C59.6355 133.664 60.1169 133.323 60.519 132.884C60.9333 132.445 61.2562 131.927 61.4877 131.33C61.7192 130.721 61.835 130.051 61.835 129.32C61.835 128.564 61.7192 127.882 61.4877 127.273C61.2562 126.663 60.9333 126.145 60.519 125.719C60.1169 125.293 59.6355 124.97 59.075 124.75C58.5267 124.519 57.9296 124.409 57.2838 124.421C56.6501 124.409 56.0531 124.519 55.4925 124.75C54.9442 124.97 54.4568 125.293 54.0303 125.719C53.616 126.145 53.287 126.663 53.0433 127.273C52.7996 127.882 52.6777 128.564 52.6777 129.32ZM69.375 110.42H77.9108V126.816H81.1094L82.4254 124.933V119.925H92.2224V124.933H88.8227L85.2951 129.009L88.8958 133.359H92.0396V138.861H86.9035L80.7621 130.745H77.9108V133.853H79.8482V138.861H69.375V133.853H72.2995V115.429H69.375V110.42ZM95.7047 135.9C95.7047 135.412 95.79 134.955 95.9606 134.529C96.1434 134.102 96.3932 133.725 96.71 133.396C97.039 133.067 97.4229 132.811 97.8615 132.628C98.3002 132.433 98.7693 132.336 99.2689 132.336C99.7441 132.336 100.195 132.433 100.621 132.628C101.06 132.811 101.438 133.067 101.755 133.396C102.084 133.713 102.34 134.09 102.522 134.529C102.705 134.968 102.797 135.425 102.797 135.9C102.797 136.387 102.699 136.85 102.504 137.289C102.321 137.728 102.072 138.105 101.755 138.422C101.438 138.739 101.066 138.989 100.64 139.172C100.213 139.367 99.7563 139.464 99.2689 139.464C98.7571 139.464 98.2819 139.367 97.8432 139.172C97.4168 138.989 97.039 138.739 96.71 138.422C96.3932 138.105 96.1434 137.734 95.9606 137.307C95.79 136.869 95.7047 136.399 95.7047 135.9ZM115.717 119.283C117.364 119.283 118.674 119.62 119.647 120.294C120.646 120.943 121.357 121.841 121.781 122.989C122.23 124.112 122.455 125.36 122.455 126.732V137.738C122.455 138.037 122.343 138.299 122.118 138.524C121.893 138.749 121.631 138.861 121.332 138.861C120.982 138.861 120.708 138.749 120.508 138.524C120.309 138.299 120.209 138.037 120.209 137.738V126.845C120.209 125.847 120.047 124.936 119.722 124.112C119.398 123.289 118.861 122.627 118.113 122.128C117.389 121.629 116.428 121.38 115.23 121.38C114.157 121.38 113.134 121.629 112.161 122.128C111.212 122.627 110.439 123.289 109.84 124.112C109.241 124.936 108.941 125.847 108.941 126.845V137.738C108.941 138.037 108.829 138.299 108.605 138.524C108.38 138.749 108.118 138.861 107.818 138.861C107.469 138.861 107.195 138.749 106.995 138.524C106.795 138.299 106.695 138.037 106.695 137.738V120.968C106.695 120.668 106.795 120.406 106.995 120.182C107.22 119.957 107.494 119.845 107.818 119.845C108.143 119.845 108.405 119.957 108.605 120.182C108.829 120.406 108.941 120.668 108.941 120.968V124.112L108.08 125.46C108.13 124.661 108.38 123.9 108.829 123.176C109.303 122.428 109.902 121.766 110.626 121.192C111.35 120.593 112.148 120.132 113.022 119.807C113.92 119.458 114.818 119.283 115.717 119.283ZM145.78 129.278C145.78 131.175 145.369 132.884 144.545 134.406C143.722 135.904 142.599 137.089 141.176 137.962C139.754 138.811 138.132 139.235 136.31 139.235C134.538 139.235 132.928 138.811 131.481 137.962C130.058 137.089 128.923 135.904 128.075 134.406C127.251 132.884 126.839 131.175 126.839 129.278C126.839 127.356 127.251 125.647 128.075 124.15C128.923 122.652 130.058 121.467 131.481 120.593C132.928 119.72 134.538 119.283 136.31 119.283C138.132 119.283 139.754 119.72 141.176 120.593C142.599 121.467 143.722 122.652 144.545 124.15C145.369 125.647 145.78 127.356 145.78 129.278ZM143.534 129.278C143.534 127.756 143.222 126.408 142.599 125.235C141.975 124.037 141.114 123.101 140.016 122.428C138.943 121.729 137.707 121.38 136.31 121.38C134.962 121.38 133.739 121.729 132.641 122.428C131.543 123.101 130.67 124.037 130.021 125.235C129.397 126.408 129.085 127.756 129.085 129.278C129.085 130.8 129.397 132.148 130.021 133.321C130.67 134.494 131.543 135.429 132.641 136.128C133.739 136.802 134.962 137.139 136.31 137.139C137.707 137.139 138.943 136.802 140.016 136.128C141.114 135.429 141.975 134.494 142.599 133.321C143.222 132.148 143.534 130.8 143.534 129.278ZM167.998 129.278C167.998 131.175 167.586 132.884 166.762 134.406C165.939 135.904 164.816 137.089 163.393 137.962C161.971 138.811 160.349 139.235 158.527 139.235C156.755 139.235 155.146 138.811 153.698 137.962C152.276 137.089 151.14 135.904 150.292 134.406C149.468 132.884 149.056 131.175 149.056 129.278C149.056 127.356 149.468 125.647 150.292 124.15C151.14 122.652 152.276 121.467 153.698 120.593C155.146 119.72 156.755 119.283 158.527 119.283C160.349 119.283 161.971 119.72 163.393 120.593C164.816 121.467 165.939 122.652 166.762 124.15C167.586 125.647 167.998 127.356 167.998 129.278ZM165.752 129.278C165.752 127.756 165.44 126.408 164.816 125.235C164.192 124.037 163.331 123.101 162.233 122.428C161.16 121.729 159.925 121.38 158.527 121.38C157.179 121.38 155.957 121.729 154.859 122.428C153.761 123.101 152.887 124.037 152.238 125.235C151.614 126.408 151.302 127.756 151.302 129.278C151.302 130.8 151.614 132.148 152.238 133.321C152.887 134.494 153.761 135.429 154.859 136.128C155.957 136.802 157.179 137.139 158.527 137.139C159.925 137.139 161.16 136.802 162.233 136.128C163.331 135.429 164.192 134.494 164.816 133.321C165.44 132.148 165.752 130.8 165.752 129.278ZM173.744 138.861C173.42 138.861 173.145 138.749 172.921 138.524C172.721 138.299 172.621 138.037 172.621 137.738V112.283C172.621 111.984 172.721 111.722 172.921 111.497C173.145 111.273 173.42 111.16 173.744 111.16C174.069 111.16 174.331 111.273 174.53 111.497C174.755 111.722 174.867 111.984 174.867 112.283V137.738C174.867 138.037 174.755 138.299 174.53 138.524C174.331 138.749 174.069 138.861 173.744 138.861ZM186.471 119.658C186.746 119.658 186.996 119.782 187.22 120.032C187.445 120.257 187.557 120.506 187.557 120.781C187.557 121.105 187.42 121.392 187.145 121.642L174.568 132.347L174.455 129.69L185.685 120.032C185.91 119.782 186.172 119.658 186.471 119.658ZM186.771 138.861C186.447 138.861 186.172 138.724 185.947 138.449L177.413 129.39L179.097 127.855L187.557 136.877C187.782 137.126 187.894 137.413 187.894 137.738C187.894 138.087 187.757 138.362 187.482 138.561C187.208 138.761 186.971 138.861 186.771 138.861Z" fill="#0D0D0D"/>
</svg>
